<svg xmlns="http://www.w3.org/2000/svg" xmlns:xlink="http://www.w3.org/1999/xlink" viewBox="0,0,256,256" width="30px" height="30px"><g fill="#57bbdd" fill-rule="nonzero" stroke="none" stroke-width="1" stroke-linecap="butt" stroke-linejoin="miter" stroke-miterlimit="10" stroke-dasharray="" stroke-dashoffset="0" font-family="none" font-weight="none" font-size="none" text-anchor="none" style="mix-blend-mode: normal"><g transform="scale(8.53333,8.53333)"><path d="M15,3c-6.627,0 -12,5.373 -12,12c0,6.29 4.842,11.43922 11,11.94922v-3.14648c0,-0.474 -0.31534,-0.90281 -0.77734,-1.00781c-3.697,-0.839 -6.42294,-4.23247 -6.21094,-8.23047c0.217,-4.091 3.66381,-7.44555 7.75781,-7.56055c4.524,-0.128 8.23047,3.50109 8.23047,7.99609c0,0.383 -0.03589,0.75795 -0.08789,1.12695c-0.015,0.106 -0.03083,0.20945 -0.04883,0.31445c-0.042,0.23 -0.09525,0.45669 -0.15625,0.67969c-1.415,5.498 -7.83195,9.37003 -8.62695,9.83203c0.304,0.023 0.60992,0.04688 0.91992,0.04688c6.627,0 12,-5.373 12,-12c0,-6.627 -5.373,-12 -12,-12z"></path></g></g></svg>